# Blender 3.4.1
# www.blender.org
mtllib stevy_no_limbs.mtl
o Cube.005
v -0.248954 1.426976 0.114750
v 0.256043 1.426976 0.114750
v 0.256042 1.426976 -0.114750
v -0.248954 1.426976 -0.114750
v -0.248954 0.768140 0.114750
v 0.256042 0.768140 0.114750
v 0.256042 0.768140 -0.114750
v -0.248954 0.768140 -0.114750
vn -0.0000 1.0000 -0.0000
vn -0.0000 -0.0000 1.0000
vn -1.0000 -0.0000 -0.0000
vn -0.0000 -1.0000 -0.0000
vn -0.0000 -0.0000 -1.0000
vn 1.0000 -0.0000 -0.0000
vt 0.622224 0.375264
vt 0.439419 0.501069
vt 0.500000 0.370784
vt 0.313044 0.494516
vt 0.505681 0.370022
vt 0.309159 0.373364
vt 0.314588 0.373515
vt 0.312738 0.372217
vt 0.249632 0.373364
vt 0.440962 0.380069
vt 0.441207 0.370784
vt 0.438887 0.372217
vt 0.625501 0.005748
vt 0.183671 0.494358
vt 0.500000 -0.005172
vt 0.508958 0.000506
vt 0.185427 0.380179
vt 0.309159 -0.002509
vt 0.129334 0.382434
vt 0.312738 0.000239
vt 0.249632 -0.002509
vt 0.127578 0.496613
vt 0.441206 -0.005172
vt 0.438887 0.000239
s 0
usemtl Material.001
f 1/2/1 2/4/1 3/7/1
f 5/13/2 2/5/2 1/1/2
f 1/2/1 3/7/1 4/10/1
f 5/15/3 1/3/3 4/11/3
f 5/13/2 6/16/2 2/5/2
f 5/14/4 7/19/4 6/17/4
f 5/14/4 8/22/4 7/19/4
f 5/15/3 4/11/3 8/23/3
f 3/8/5 7/20/5 8/24/5
f 3/8/5 8/24/5 4/12/5
f 6/18/6 7/21/6 3/9/6
f 6/18/6 3/9/6 2/6/6
o Cube.006
v 0.218544 1.424297 -0.220000
v 0.221446 1.864287 -0.220000
v -0.221446 1.427199 -0.220000
v 0.218544 1.424297 -0.220000
v 0.221446 1.864287 -0.220000
v 0.218544 1.424297 0.220000
v -0.221446 1.427199 0.220000
v -0.218544 1.867189 0.220000
v -0.218544 1.867189 -0.220000
v 0.221446 1.864287 0.220000
v 0.221446 1.864287 0.220000
v 0.218544 1.424297 0.220000
vn 0.0066 1.0000 -0.0000
vn -0.0000 -0.0000 1.0000
vn -0.0000 -0.0000 -1.0000
vn -0.0066 -1.0000 -0.0000
vn -0.0000 -0.0000 -0.0000
vn 0.0065 1.0000 -0.0000
vn -1.0000 0.0066 -0.0000
vn 1.0000 -0.0066 -0.0000
vt 1.000000 0.000000
vt 0.125687 0.503316
vt 0.369216 0.761856
vt 0.126238 0.747512
vt 0.125457 0.755906
vt 0.253952 0.761856
vt 0.249306 0.504219
vt 0.250780 0.503290
vt 0.125687 0.503316
vt 1.000000 0.000000
vt 0.123832 0.501264
vt 0.126238 0.747512
vt 0.124180 0.750315
vt 0.125457 0.755906
vt 0.369216 0.991808
vt 0.375900 0.503487
vt 1.000000 1.000000
vt 0.253952 0.991808
vt 0.500024 0.502517
vt 0.374877 0.506418
vt 0.374931 0.749621
vt 0.249112 0.999932
vt 0.500661 0.750006
vt 0.250104 0.747256
vt 0.251113 0.748845
vt 0.249146 0.755974
vt 0.125829 0.999911
vt 0.376673 0.749269
vt 0.376673 0.749269
vt 0.002091 0.753476
vt 0.125829 0.999911
vt 0.375900 0.503487
vt 1.000000 1.000000
vt 0.001326 0.503335
s 0
usemtl Material.001
f 9/26/7 10/28/8 13/36/7
f 11/32/9 10/28/9 9/26/9
f 9/27/10 15/42/10 11/30/10
f 14/41/11 9/25/11 12/34/11
f 9/26/7 13/36/12 12/33/8
f 9/27/10 14/39/10 15/42/10
f 15/44/13 17/48/13 11/31/13
f 16/47/8 15/43/8 14/40/8
f 15/44/13 16/45/13 17/48/13
f 11/32/9 17/49/9 10/28/9
f 17/50/7 18/51/7 10/29/7
f 17/50/7 16/46/7 18/51/7
f 18/52/12 14/40/8 20/56/7
f 16/47/8 14/40/8 18/52/8
f 10/29/11 18/51/11 19/55/11
f 18/52/7 20/56/7 19/53/8
f 14/41/11 12/34/11 20/57/11
f 12/35/14 19/54/14 20/58/14
f 12/35/14 13/37/14 19/54/14
f 10/29/11 19/55/11 13/38/11
