# Blender 3.3.1
# www.blender.org
mtllib untitled.mtl
o Cube
v -0.500000 0.750000 0.500000
v -0.500000 -0.250000 0.500000
v -0.500000 0.750000 -0.500000
v -0.500000 -0.250000 -0.500000
v 0.500000 0.750000 0.500000
v 0.500000 -0.250000 0.500000
v 0.500000 0.750000 -0.500000
v 0.500000 -0.250000 -0.500000
vn -0.0000 1.0000 -0.0000
vn -0.0000 -0.0000 -1.0000
vn 1.0000 -0.0000 -0.0000
vn -0.0000 -1.0000 -0.0000
vn -1.0000 -0.0000 -0.0000
vn -0.0000 -0.0000 1.0000
vt 0.991965 0.011690
vt 0.008035 0.011690
vt 0.991965 0.995620
vt 0.008035 0.995620
vt 1.975894 0.011690
vt 0.991965 -0.972239
vt -0.975894 0.011690
vt 0.008035 -0.972239
vt 1.975894 0.995620
vt 0.991965 1.979549
vt 0.991965 -1.956168
vt 0.008035 -1.956168
vt 0.008035 1.979549
vt -0.975894 0.995620
s 0
usemtl Material
f 5/5/1 3/3/1 1/1/1
f 3/3/2 8/13/2 4/4/2
f 7/11/3 6/8/3 8/12/3
f 2/2/4 8/14/4 6/7/4
f 1/1/5 4/4/5 2/2/5
f 5/6/6 2/2/6 6/8/6
f 5/5/1 7/9/1 3/3/1
f 3/3/2 7/10/2 8/13/2
f 7/11/3 5/6/3 6/8/3
f 2/2/4 4/4/4 8/14/4
f 1/1/5 3/3/5 4/4/5
f 5/6/6 1/1/6 2/2/6
