# Blender 3.4.1
# www.blender.org
mtllib steve_body.mtl
o Cube.002
v -0.250555 0.769418 0.114750
v -0.000581 0.769418 0.114750
v -0.250555 0.769418 -0.114750
v -0.250555 0.110582 0.114750
v -0.250555 0.110582 -0.114750
v -0.000581 0.110582 -0.114750
v -0.000581 0.110582 0.114750
v -0.000581 0.769418 -0.114750
vn -0.0000 -0.0000 1.0000
vn -0.0000 1.0000 -0.0000
vn -1.0000 -0.0000 -0.0000
vn -0.0000 -1.0000 -0.0000
vn -0.0000 -0.0000 -1.0000
vn 1.0000 -0.0000 -0.0000
vt 0.250211 0.373175
vt 0.122711 0.377515
vt 0.187524 0.370784
vt 0.187955 0.370491
vt -0.003674 0.368140
vt 0.122790 0.486939
vt 0.125900 0.370784
vt 0.122484 0.365241
vt 0.062097 0.380523
vt 0.187525 0.000071
vt 0.185797 0.496086
vt 0.250211 0.001371
vt 0.125900 0.000071
vt 0.122484 0.003935
vt 0.129150 0.496087
vt 0.130335 0.384604
vt 0.065964 -0.002528
vt 0.068050 0.003935
vt 0.186982 0.384604
vt 0.187955 -0.001314
vt 0.003760 -0.002275
vt 0.058530 0.367886
vt 0.068050 0.365241
vt 0.062175 0.489947
s 0
usemtl Material.001
f 4/12/1 2/4/1 1/1/1
f 2/6/2 3/9/2 1/2/2
f 1/3/3 3/7/3 5/13/3
f 1/3/3 5/13/3 4/10/3
f 5/15/4 7/19/4 4/11/4
f 6/18/5 5/14/5 3/8/5
f 5/15/4 6/16/4 7/19/4
f 4/12/1 7/20/1 2/4/1
f 7/21/6 6/17/6 8/22/6
f 7/21/6 8/22/6 2/5/6
f 6/18/5 3/8/5 8/23/5
f 2/6/2 8/24/2 3/9/2
o Cube.003
v 0.000099 0.769418 0.114750
v 0.250074 0.769418 0.114750
v 0.000099 0.769418 -0.114750
v 0.000099 0.110582 0.114750
v 0.000099 0.110582 -0.114750
v 0.250074 0.110582 0.114750
v 0.250074 0.110582 -0.114750
v 0.250074 0.769418 -0.114750
vn -0.0000 -0.0000 1.0000
vn -0.0000 1.0000 -0.0000
vn -1.0000 -0.0000 -0.0000
vn -0.0000 -1.0000 -0.0000
vn -0.0000 -0.0000 -1.0000
vn 1.0000 -0.0000 -0.0000
vt 0.250211 0.370491
vt 0.124564 0.372844
vt 0.000807 0.377727
vt 0.123284 0.495731
vt 0.000878 0.373364
vt 0.190639 0.367806
vt 0.059514 0.377727
vt 0.125158 0.375770
vt 0.063538 0.374441
vt 0.000807 0.009620
vt 0.179068 0.489942
vt 0.250211 0.001371
vt 0.059514 0.009620
vt 0.124947 0.003338
vt 0.130391 0.486732
vt 0.177758 0.401205
vt 0.000878 0.010074
vt 0.190639 -0.001314
vt 0.129081 0.397994
vt 0.062985 0.010074
vt 0.065375 0.003473
vt 0.065586 0.375905
vt 0.062259 0.497328
vt 0.062985 0.373364
s 0
usemtl Material.001
f 12/36/7 10/30/7 9/25/7
f 10/28/8 11/33/8 9/26/8
f 9/27/9 11/31/9 13/37/9
f 9/27/9 13/37/9 12/34/9
f 13/39/10 14/40/10 12/35/10
f 15/45/11 13/38/11 11/32/11
f 13/39/10 15/43/10 14/40/10
f 14/41/12 15/44/12 16/48/12
f 15/45/11 11/32/11 16/46/11
f 10/28/8 16/47/8 11/33/8
f 14/41/12 16/48/12 10/29/12
f 12/36/7 14/42/7 10/30/7
o Cube.005
v -0.248954 1.426976 0.114750
v 0.256043 1.426976 0.114750
v 0.256042 1.426976 -0.114750
v -0.248954 1.426976 -0.114750
v -0.248954 0.768140 0.114750
v 0.256042 0.768140 0.114750
v 0.256042 0.768140 -0.114750
v -0.248954 0.768140 -0.114750
vn -0.0000 1.0000 -0.0000
vn -0.0000 -0.0000 1.0000
vn -1.0000 -0.0000 -0.0000
vn -0.0000 -1.0000 -0.0000
vn -0.0000 -0.0000 -1.0000
vn 1.0000 -0.0000 -0.0000
vt 0.622224 0.375264
vt 0.439419 0.501069
vt 0.500000 0.370784
vt 0.313044 0.494516
vt 0.505681 0.370022
vt 0.309159 0.373364
vt 0.314588 0.373515
vt 0.312738 0.372217
vt 0.249632 0.373364
vt 0.440962 0.380069
vt 0.441207 0.370784
vt 0.438887 0.372217
vt 0.625501 0.005748
vt 0.183671 0.494358
vt 0.500000 -0.005172
vt 0.508958 0.000506
vt 0.185427 0.380179
vt 0.309159 -0.002509
vt 0.129334 0.382434
vt 0.312738 0.000239
vt 0.249632 -0.002509
vt 0.127578 0.496613
vt 0.441206 -0.005172
vt 0.438887 0.000239
s 0
usemtl Material.001
f 17/50/13 18/52/13 19/55/13
f 21/61/14 18/53/14 17/49/14
f 17/50/13 19/55/13 20/58/13
f 21/63/15 17/51/15 20/59/15
f 21/61/14 22/64/14 18/53/14
f 21/62/16 23/67/16 22/65/16
f 21/62/16 24/70/16 23/67/16
f 21/63/15 20/59/15 24/71/15
f 19/56/17 23/68/17 24/72/17
f 19/56/17 24/72/17 20/60/17
f 22/66/18 23/69/18 19/57/18
f 22/66/18 19/57/18 18/54/18
o Cube.006
v 0.218544 1.424297 -0.220000
v 0.221446 1.864287 -0.220000
v -0.221446 1.427199 -0.220000
v 0.218544 1.424297 -0.220000
v 0.221446 1.864287 -0.220000
v 0.218544 1.424297 0.220000
v -0.221446 1.427199 0.220000
v -0.218544 1.867189 0.220000
v -0.218544 1.867189 -0.220000
v 0.221446 1.864287 0.220000
v 0.221446 1.864287 0.220000
v 0.218544 1.424297 0.220000
vn 0.0066 1.0000 -0.0000
vn -0.0000 -0.0000 1.0000
vn -0.0000 -0.0000 -1.0000
vn -0.0066 -1.0000 -0.0000
vn -0.0000 -0.0000 -0.0000
vn 0.0065 1.0000 -0.0000
vn -1.0000 0.0066 -0.0000
vn 1.0000 -0.0066 -0.0000
vt 1.000000 0.000000
vt 0.125687 0.503316
vt 0.369216 0.761856
vt 0.126238 0.747512
vt 0.125457 0.755906
vt 0.253952 0.761856
vt 0.249306 0.504219
vt 0.250780 0.503290
vt 0.125687 0.503316
vt 1.000000 0.000000
vt 0.123832 0.501264
vt 0.126238 0.747512
vt 0.124180 0.750315
vt 0.125457 0.755906
vt 0.369216 0.991808
vt 0.375900 0.503487
vt 1.000000 1.000000
vt 0.253952 0.991808
vt 0.500024 0.502517
vt 0.374877 0.506418
vt 0.374931 0.749621
vt 0.249112 0.999932
vt 0.500661 0.750006
vt 0.250104 0.747256
vt 0.251113 0.748845
vt 0.249146 0.755974
vt 0.125829 0.999911
vt 0.376673 0.749269
vt 0.376673 0.749269
vt 0.002091 0.753476
vt 0.125829 0.999911
vt 0.375900 0.503487
vt 1.000000 1.000000
vt 0.001326 0.503335
s 0
usemtl Material.001
f 25/74/19 26/76/20 29/84/19
f 27/80/21 26/76/21 25/74/21
f 25/75/22 31/90/22 27/78/22
f 30/89/23 25/73/23 28/82/23
f 25/74/19 29/84/24 28/81/20
f 25/75/22 30/87/22 31/90/22
f 31/92/25 33/96/25 27/79/25
f 32/95/20 31/91/20 30/88/20
f 31/92/25 32/93/25 33/96/25
f 27/80/21 33/97/21 26/76/21
f 33/98/19 34/99/19 26/77/19
f 33/98/19 32/94/19 34/99/19
f 34/100/24 30/88/20 36/104/19
f 32/95/20 30/88/20 34/100/20
f 26/77/23 34/99/23 35/103/23
f 34/100/19 36/104/19 35/101/20
f 30/89/23 28/82/23 36/105/23
f 28/83/26 35/102/26 36/106/26
f 28/83/26 29/85/26 35/102/26
f 26/77/23 35/103/23 29/86/23
